<?xml version="1.0" standalone="no"?>
<!DOCTYPE svg PUBLIC "-//W3C//DTD SVG 1.1//EN" "http://www.w3.org/Graphics/SVG/1.1/DTD/svg11.dtd" >
<svg>
<metadata>
Created by FontForge 20120731 at Fri Jun 23 07:33:25 2017
 By www-data
Copyright 2016 by Nils Kaehler. All rights reserved.
</metadata>
<defs>
<font id="BauhausModern-Regular" horiz-adv-x="853" >
  <font-face 
    font-family="Bauhaus Modern"
    font-weight="400"
    font-stretch="normal"
    units-per-em="1000"
    panose-1="0 0 5 0 0 0 0 0 0 0"
    ascent="800"
    descent="-200"
    x-height="498"
    cap-height="750"
    bbox="20 -200 1461 1063"
    underline-thickness="50"
    underline-position="-100"
    unicode-range="U+0020-00FC"
  />
    <missing-glyph />
    <glyph glyph-name="space" unicode=" " horiz-adv-x="400" 
 />
    <glyph glyph-name="exclam" unicode="!" horiz-adv-x="195" 
d="M50 750v-550h94v550h-94zM98 93q20 0 33.5 -13.5t13.5 -33.5q0 -19 -14 -32.5t-33 -13.5t-32.5 13.5t-13.5 32.5t13.5 33t32.5 14z" />
    <glyph glyph-name="quotedbl" unicode="&#x22;" horiz-adv-x="570" 
d="M35 750v94q103 -2 176.5 -75t73.5 -175h-94q0 64 -45.5 110t-110.5 46zM285 750v94q103 -2 176.5 -75t73.5 -175h-94q0 64 -45.5 110t-110.5 46z" />
    <glyph glyph-name="quotesingle" unicode="'" horiz-adv-x="196" 
d="M52 850l-2 -350h94l2 350h-94z" />
    <glyph glyph-name="comma" unicode="," horiz-adv-x="290" 
d="M176 125h94q-2 -103 -75 -176.5t-175 -73.5v94q64 0 110 45.5t46 110.5z" />
    <glyph glyph-name="hyphen" unicode="-" horiz-adv-x="417" 
d="M367 295h-317v-94h317v94z" />
    <glyph glyph-name="period" unicode="." horiz-adv-x="134" 
d="M114 47q0 -19 -14 -33t-33 -14t-33 14t-14 33t14 33t33 14t33 -14t14 -33z" />
    <glyph glyph-name="zero" unicode="0" horiz-adv-x="597" 
d="M299 753q103 0 175.5 -73.5t72.5 -176.5v-254q0 -103 -72.5 -176t-175.5 -73q-104 0 -176.5 73t-72.5 176v254q0 103 72.5 176.5t176.5 73.5zM454 249v254q0 64 -45.5 109t-109.5 45q-65 0 -110 -45t-45 -109v-254q0 -64 45.5 -109t109.5 -45t109.5 45t45.5 109z" />
    <glyph glyph-name="one" unicode="1" horiz-adv-x="350" 
d="M300 0h-96v501q0 65 -45 110t-109 45v94q103 0 176.5 -72.5t73.5 -176.5v-501z" />
    <glyph glyph-name="two" unicode="2" horiz-adv-x="599" 
d="M549 95v-95h-497v95q0 102 72 175t175 74q64 0 109.5 45t45.5 109t-45.5 109t-109.5 45q-65 0 -110 -45t-45 -109h-94q0 103 72.5 176.5t176.5 73.5q103 0 175.5 -73.5t72.5 -176.5q0 -102 -71.5 -175t-174.5 -74q-64 0 -109.5 -45t-45.5 -109h403z" />
    <glyph glyph-name="three" unicode="3" horiz-adv-x="595" 
d="M510 376q35 -59 35 -127q0 -103 -72.5 -176t-175.5 -73h-247v95h247q64 0 109.5 45t45.5 109t-45.5 109t-109.5 45h-247v96h247q80 0 146 -48q9 24 9 52q0 64 -45.5 109t-109.5 45h-247v96h247q103 0 175.5 -73.5t72.5 -176.5q0 -68 -35 -127z" />
    <glyph glyph-name="four" unicode="4" horiz-adv-x="598" 
d="M548 751v-751h-94v254h-155q-104 0 -176.5 73t-72.5 176v247h94v-247q0 -64 45.5 -109t109.5 -45h155v402h94z" />
    <glyph glyph-name="five" unicode="5" horiz-adv-x="597" 
d="M145 652v-153h155q103 -1 175 -74t72 -175q0 -103 -72.5 -176.5t-175.5 -73.5q-104 0 -176.5 73.5t-72.5 176.5h94q0 -64 45 -109t110 -45q64 0 109.5 45t45.5 109t-45.5 109t-109.5 45l-249 -1v344h497v-95h-402z" />
    <glyph glyph-name="six" unicode="6" horiz-adv-x="597" 
d="M547 653h-247q-64 0 -108.5 -44.5t-45.5 -109.5h154q103 -1 175 -74t72 -175q0 -103 -72.5 -176.5t-175.5 -73.5q-104 0 -176.5 73.5t-72.5 176.5v249q1 104 74 176t176 72h247v-94zM454 250q0 64 -45.5 109t-109.5 45h-155v-154q0 -64 45 -109t110 -45q64 0 109.5 45
t45.5 109z" />
    <glyph glyph-name="seven" unicode="7" horiz-adv-x="597" 
d="M547 0h-94v501h-2q0 65 -45 110t-109 45h-247v94h247q103 0 176.5 -72.5t73.5 -176.5v-501z" />
    <glyph glyph-name="eight" unicode="8" horiz-adv-x="597" 
d="M513 376q34 -60 34 -127q0 -103 -72.5 -176t-175.5 -73q-104 0 -176.5 73t-72.5 176q0 68 35 127q-35 59 -35 127q0 103 72.5 176.5t176.5 73.5q103 0 175.5 -73.5t72.5 -176.5q0 -70 -34 -127zM299 499q80 0 146 -48q9 24 9 52q0 64 -45.5 109t-109.5 45q-65 0 -110 -45
t-45 -109q0 -27 9 -51q66 47 146 47zM299 95q64 0 109.5 45t45.5 109t-45.5 109t-109.5 45q-65 0 -110 -45t-45 -109t45.5 -109t109.5 -45z" />
    <glyph glyph-name="nine" unicode="9" horiz-adv-x="597" 
d="M50 94h247q65 0 109.5 45t44.5 109h-154q-103 1 -175 74t-72 175q0 103 72.5 176.5t175.5 73.5q104 0 176.5 -73.5t72.5 -176.5v-249q0 -104 -73.5 -176t-176.5 -72h-247v94zM143 497q0 -64 45.5 -109t109.5 -45h155v154q0 64 -45 109t-110 45q-64 0 -109.5 -45
t-45.5 -109z" />
    <glyph glyph-name="colon" unicode=":" horiz-adv-x="164" 
d="M129 453q0 -19 -13.5 -33t-33.5 -14q-19 0 -33 14t-14 33t14 33t33 14q20 0 33.5 -14t13.5 -33zM129 47q0 -19 -13.5 -33t-33.5 -14q-19 0 -33 14t-14 33t14 33t33 14q20 0 33.5 -14t13.5 -33z" />
    <glyph glyph-name="semicolon" unicode=";" horiz-adv-x="350" 
d="M298 453q0 -19 -14 -33t-33 -14t-33 14t-14 33t14 33t33 14t33 -14t14 -33zM206 125h94q-2 -103 -75 -176.5t-175 -73.5v94q64 0 110 45.5t46 110.5z" />
    <glyph glyph-name="question" unicode="?" horiz-adv-x="597" 
d="M547 555q0 -102 -72 -175t-175 -74v-115h-94v210h93q64 0 109.5 45t45.5 109t-45.5 109t-109.5 45q-65 0 -110 -45t-45 -109h-94q0 103 72.5 176.5t176.5 73.5q103 0 175.5 -73.5t72.5 -176.5zM300 47q0 -19 -14 -33t-33 -14t-33 14t-14 33t14 33t33 14t33 -14t14 -33z
" />
    <glyph glyph-name="A" unicode="A" 
d="M427 753q155 0 265.5 -110.5t110.5 -265.5v-377h-94v107h-565v-107h-94v377q0 155 110.5 265.5t266.5 110.5zM709 201v176q0 116 -83 199t-199 83q-117 0 -200 -83t-83 -199v-176h565z" />
    <glyph glyph-name="B" unicode="B" horiz-adv-x="727" 
d="M677 248q0 -102 -73 -174.5t-175 -73.5h-379v750h255q102 -2 174.5 -74t72.5 -175q0 -18 -3 -36q58 -32 93 -90t35 -127zM144 656v-159h312v4q0 65 -45 110t-109 45h-158zM429 94v-1q63 1 107.5 46.5t44.5 108.5q0 65 -45 110t-109 45h-283v-309h285z" />
    <glyph glyph-name="C" unicode="C" horiz-adv-x="847" 
d="M797 659h-370q-117 0 -200 -83t-83 -200q0 -116 83 -199t200 -83h370v-94h-373q-155 1 -264.5 111t-109.5 265t109.5 265t264.5 112h373v-94z" />
    <glyph glyph-name="D" unicode="D" horiz-adv-x="803" 
d="M50 753h329q155 -1 264.5 -111t109.5 -265t-109.5 -265t-264.5 -112h-329v753zM144 94h232q117 0 200 83t83 200t-83 199.5t-200 82.5h-232v-565z" />
    <glyph glyph-name="E" unicode="E" horiz-adv-x="847" 
d="M797 659h-371q-117 0 -199.5 -83t-82.5 -200q0 -116 82.5 -199t199.5 -83h371v-94h-374q-155 2 -264 112t-109 264q0 155 109 265t264 112h374v-94zM337 376q0 20 13.5 33.5t33.5 13.5h280v-94h-280q-19 0 -33 14t-14 33z" />
    <glyph glyph-name="F" unicode="F" horiz-adv-x="560" 
d="M510 656h-210q-64 0 -109 -45t-45 -110v-79h184v-94h-184v-328h-96v501q0 104 73.5 176.5t176.5 72.5h210v-94z" />
    <glyph glyph-name="G" unicode="G" 
d="M803 424v-47q0 -156 -110.5 -266.5t-266.5 -110.5q-155 0 -265.5 110.5t-110.5 266.5q0 155 110.5 265.5t265.5 110.5v-94q-116 0 -199 -83t-83 -199q0 -117 83 -200t199 -83q104 0 183 67.5t96 168.5h-279v94h377z" />
    <glyph glyph-name="H" unicode="H" horiz-adv-x="560" 
d="M510 750v-750h-94v328h-272v-328h-94v750h94v-328h272v328h94z" />
    <glyph glyph-name="I" unicode="I" horiz-adv-x="194" 
d="M50 750h94v-750h-94v750z" />
    <glyph glyph-name="J" unicode="J" horiz-adv-x="476" 
d="M426 750v-375q-1 -155 -111 -265t-265 -110v94q117 0 199.5 83t82.5 200v373h94z" />
    <glyph glyph-name="K" unicode="K" horiz-adv-x="569" 
d="M176 375q145 -13 244 -120.5t99 -254.5h-94q0 117 -82.5 199.5t-198.5 82.5v-282h-94v750h94v-282q116 0 198.5 82.5t82.5 199.5h94q0 -147 -99 -254.5t-244 -120.5z" />
    <glyph glyph-name="L" unicode="L" horiz-adv-x="560" 
d="M510 94v-94h-210q-103 0 -176.5 72.5t-73.5 176.5v501h96v-501q0 -65 45 -110t109 -45h210z" />
    <glyph glyph-name="M" unicode="M" horiz-adv-x="1511" 
d="M1367 0v374q0 116 -83 199t-199 83q-115 0 -197 -80t-85 -194v-382h-94l-1 382q-3 114 -85 194t-197 80q-117 0 -199.5 -83t-82.5 -199v-374h-94v377q1 155 111 264t265 109q105 0 192.5 -53t136.5 -141q50 89 137.5 141.5t192.5 52.5q155 0 264.5 -109t111.5 -264v-377
h-94z" />
    <glyph glyph-name="N" unicode="N" 
d="M709 0v374q-1 118 -83 200t-200 82q-116 0 -198 -81.5t-84 -197.5v-377h-94v374q0 155 110 265.5t266 110.5q155 0 265 -109t112 -264v-377h-94z" />
    <glyph glyph-name="O" unicode="O" 
d="M427 753q156 0 266 -110.5t110 -265.5q0 -156 -110 -266.5t-266 -110.5t-266.5 110.5t-110.5 266.5q0 155 110.5 265.5t266.5 110.5zM427 94q117 0 199.5 83t82.5 200q0 116 -82.5 199t-199.5 83t-200 -83t-83 -199q0 -117 83 -200t200 -83z" />
    <glyph glyph-name="P" unicode="P" horiz-adv-x="564" 
d="M50 750h215q103 0 176 -73.5t73 -176.5q0 -104 -73 -177t-176 -73h-121v-250h-94v750zM421 500q0 66 -45 110.5t-111 45.5h-121v-312h121q66 1 111 46t45 110z" />
    <glyph glyph-name="Q" unicode="Q" 
d="M803 377q0 -83 -34 -156.5t-94 -126.5h122v-94h-373q-155 2 -264.5 112t-109.5 265t110.5 265.5t266.5 110.5t266 -110.5t110 -265.5zM144 377q0 -117 83 -200t200 -83q116 0 199 83t83 200q0 116 -83 199t-199 83q-117 0 -200 -83t-83 -199z" />
    <glyph glyph-name="R" unicode="R" horiz-adv-x="564" 
d="M262 250q35 -70 103 -113t149 -43v-94q-121 0 -217.5 69.5t-136.5 180.5h-16v-250h-94v750h215q103 0 176 -73.5t73 -176.5q0 -104 -73.5 -177t-178.5 -73zM144 344h121v1q64 0 110 45.5t46 109.5t-45.5 109.5t-110.5 45.5v1h-121v-312z" />
    <glyph glyph-name="S" unicode="S" horiz-adv-x="850" 
d="M800 657h-373q-104 0 -183 -66.5t-96 -166.5h652v-47q0 -156 -109.5 -266t-264.5 -111h-376v94h373q104 0 183 67.5t96 168.5h-652v45q0 155 110 265t265 111h375v-94z" />
    <glyph glyph-name="T" unicode="T" horiz-adv-x="560" 
d="M510 656h-183v-656h-94v656h-183v94h460v-94z" />
    <glyph glyph-name="U" unicode="U" horiz-adv-x="850" 
d="M143 750v-374q0 -117 82.5 -199.5t199.5 -82.5t199.5 82.5t82.5 199.5l1 374h94v-377q-2 -155 -112 -264t-265 -109t-265 109.5t-111 266.5v374h94z" />
    <glyph glyph-name="V" unicode="V" horiz-adv-x="664" 
d="M614 750v-750h-187q-155 0 -265 109t-112 264v377h94v-373q0 -117 83 -200t200 -83h93v656h94z" />
    <glyph glyph-name="W" unicode="W" horiz-adv-x="1511" 
d="M144 750v-373q0 -117 83 -200t199 -83q115 0 197 80t86 194l-1 382h94l1 -382q3 -114 85 -194t197 -80q117 0 199.5 83t82.5 200v373h94v-377q-1 -155 -111 -264t-265 -109q-105 0 -192.5 53t-136.5 141q-50 -89 -137.5 -141.5t-192.5 -52.5q-155 0 -264.5 109
t-111.5 264v377h94z" />
    <glyph glyph-name="X" unicode="X" horiz-adv-x="759" 
d="M709 753v-94q-115 0 -197 -80t-85 -194v-17q3 -114 85 -194t197 -80v-94q-105 0 -192.5 53t-136.5 141q-50 -89 -137.5 -141.5t-192.5 -52.5v94q115 0 197 80t86 194v17q-4 114 -86 194t-197 80v94q105 0 192.5 -52.5t137.5 -141.5q49 88 136.5 141t192.5 53z" />
    <glyph glyph-name="Y" unicode="Y" 
d="M803 750v-127q-1 -142 -96 -247.5t-234 -122.5v-253h-94v253q-140 17 -234.5 124t-94.5 250v123h94v-123q0 -117 82.5 -200t199.5 -83t200 83t83 200v123h94z" />
    <glyph glyph-name="Z" unicode="Z" horiz-adv-x="851" 
d="M801 750v-34q0 -156 -110 -266.5t-266 -110.5q-107 0 -186 -70.5t-93 -174.5h655v-94h-751v57q0 156 110 266.5t266 110.5q100 0 177 63t98 159h-651v94h751z" />
    <glyph glyph-name="underscore" unicode="_" horiz-adv-x="586" 
d="M536 0h-486v-94h486v94z" />
    <glyph glyph-name="grave" unicode="`" horiz-adv-x="350" 
d="M50 750v94q103 -2 176.5 -75t73.5 -175h-94q0 64 -46 110t-110 46z" />
    <glyph glyph-name="a" unicode="a" horiz-adv-x="585" 
d="M535 250v-251h-94v54q-70 -54 -156 -54q-103 0 -176.5 73.5t-73.5 177.5t73.5 177.5t176.5 73.5t176.5 -73.5t73.5 -177.5zM285 94q65 0 110.5 46t45.5 110t-46 110t-110 46t-110 -46t-46 -110t45.5 -110t110.5 -46z" />
    <glyph glyph-name="b" unicode="b" horiz-adv-x="587" 
d="M50 749l94 1v-302q72 55 156 55q104 1 177.5 -72t74.5 -176q1 -104 -72 -178.5t-176 -75.5t-177 72t-75 177zM301 408q-65 -1 -110.5 -47t-44.5 -110t47 -110t110 -45t110 47.5t45 110.5q-1 65 -47 110t-110 44z" />
    <glyph glyph-name="c" unicode="c" horiz-adv-x="587" 
d="M35 251q0 104 73 177.5t177 73.5h252v-96h-252q-65 0 -110.5 -45.5t-45.5 -109.5q0 -65 45.5 -111t110.5 -46h252v-95h-252q-103 0 -176.5 74t-73.5 178z" />
    <glyph glyph-name="d" unicode="d" horiz-adv-x="587" 
d="M537 750l-2 -500q-1 -104 -75 -177t-177 -72t-176 75.5t-72 178.5q1 103 74.5 176t177.5 72q84 0 156 -55v303zM286 408q-64 1 -110 -44t-47 -110q-1 -64 45 -110.5t110 -47.5t110 45t47 110t-44.5 110t-110.5 47z" />
    <glyph glyph-name="e" unicode="e" horiz-adv-x="583" 
d="M533 403h-249q-65 0 -110 -45t-45 -109t45.5 -109t109.5 -45h249v-95h-249q-104 0 -176.5 73t-72.5 176t72.5 176.5t176.5 73.5h249v-96zM237 250q0 20 13.5 33.5t33.5 13.5h125v-94h-125q-20 0 -33.5 13.5t-13.5 33.5z" />
    <glyph glyph-name="f" unicode="f" horiz-adv-x="350" 
d="M50 0v504q0 102 73.5 174t176.5 72v-94q-64 0 -110 -46t-46 -110h156v-94h-156v-406h-94z" />
    <glyph glyph-name="g" unicode="g" horiz-adv-x="600" 
d="M550 249v-199q0 -104 -73 -177t-177 -73h-250v95h250q65 0 110 46.5t45 112.5q-63 -54 -155 -54q-104 0 -177 73t-73 176q0 104 73 177t177 73t177 -73t73 -177zM300 92q65 0 110 46t45 111q0 64 -45 109.5t-110 45.5t-110 -45.5t-45 -109.5q0 -65 45 -111t110 -46z" />
    <glyph glyph-name="h" unicode="h" horiz-adv-x="606" 
d="M304 506q107 0 180 -73.5t72 -179.5v-253h-95v253q0 65 -46 111.5t-111 46.5t-111 -46.5t-46 -111.5v-253h-97v750h97v-299q68 55 157 55z" />
    <glyph glyph-name="i" unicode="i" horiz-adv-x="195" 
d="M97 657q-19 0 -33 13.5t-14 33.5q0 19 14 32.5t33 13.5t32.5 -13.5t13.5 -32.5t-13.5 -33t-32.5 -14zM145 0v500h-94v-500h94z" />
    <glyph glyph-name="j" unicode="j" horiz-adv-x="350" 
d="M252 657q-20 0 -33.5 13.5t-13.5 33.5q0 19 14 32.5t33 13.5t32.5 -13.5t13.5 -32.5t-13.5 -33t-32.5 -14zM300 500v-454q-1 -103 -74 -174.5t-176 -71.5v94q64 0 110 46t46 110v450h94z" />
    <glyph glyph-name="k" unicode="k" horiz-adv-x="482" 
d="M432 405h-89q-64 1 -109.5 -45t-45.5 -109q0 -65 45 -110.5t110 -45.5h89v-95h-89q-124 2 -199 101v-101h-94v750h94v-350q35 47 87 73.5t112 26.5h89v-95z" />
    <glyph glyph-name="l" unicode="l" horiz-adv-x="320" 
d="M50 750h96v-501q0 -65 45 -110t109 -45v-94q-103 0 -176.5 72.5t-73.5 176.5v501z" />
    <glyph glyph-name="m" unicode="m" horiz-adv-x="1003" 
d="M704 499q104 0 176.5 -73t72.5 -177v-249h-93v249q0 64 -46 109.5t-110 45.5q-63 0 -108 -42.5t-48 -104.5v-257h-94v257q-3 62 -48 104.5t-107 42.5q-64 0 -109 -45t-45 -110v-249h-95v249q0 104 72.5 177t176.5 73q125 0 203 -104q34 48 87 76t115 28z" />
    <glyph glyph-name="n" unicode="n" horiz-adv-x="603" 
d="M302 502q104 0 177.5 -73t73.5 -177v-252h-96v252q0 65 -45.5 110.5t-109.5 45.5q-65 0 -111 -45.5t-46 -110.5v-252h-95v252q0 103 74 176.5t178 73.5z" />
    <glyph glyph-name="o" unicode="o" horiz-adv-x="567" 
d="M284 0q-104 0 -176.5 73t-72.5 176t72.5 176.5t176.5 73.5q103 0 175.5 -73.5t72.5 -176.5t-72.5 -176t-175.5 -73zM284 95q64 0 109.5 45t45.5 109t-45.5 109t-109.5 45q-65 0 -110 -45t-45 -109t45.5 -109t109.5 -45z" />
    <glyph glyph-name="p" unicode="p" horiz-adv-x="587" 
d="M50 -199l2 452q1 104 75 177t177 72t176 -75.5t72 -178.5q-1 -103 -74.5 -176t-177.5 -72q-84 0 -156 55v-255zM301 95q64 -1 110 44t47 110q1 64 -45 110.5t-110 47.5t-110 -45t-47 -110t44.5 -110t110.5 -47z" />
    <glyph glyph-name="q" unicode="q" horiz-adv-x="587" 
d="M537 -199l-94 -1v255q-72 -55 -156 -55q-104 -1 -177.5 72t-74.5 176q-1 104 72 178.5t176 75.5t177 -72t75 -177zM286 95q65 1 110.5 47t44.5 110t-47 110t-110 45t-110 -47.5t-45 -110.5q1 -65 47 -110t110 -44z" />
    <glyph glyph-name="r" unicode="r" horiz-adv-x="335" 
d="M50 0v254q1 103 74 174.5t176 71.5v-94q-64 0 -110 -46t-46 -110v-250h-94z" />
    <glyph glyph-name="s" unicode="s" horiz-adv-x="594" 
d="M50 -1v95h247q49 0 90.5 30.5t55.5 77.5h-393v44q0 105 71.5 179.5t175.5 74.5h247v-95h-260q-48 -5 -85.5 -35.5t-47.5 -72.5h393v-51q0 -100 -73.5 -173.5t-173.5 -73.5h-247z" />
    <glyph glyph-name="t" unicode="t" horiz-adv-x="350" 
d="M50 750h94v-250h156v-94h-156v-156q0 -64 46 -110t110 -46v-94q-103 0 -176.5 72t-73.5 174v504z" />
    <glyph glyph-name="u" unicode="u" horiz-adv-x="601" 
d="M301 0q-104 0 -177.5 73.5t-73.5 177.5h1v249h94v-249q0 -65 45.5 -110t110.5 -45t110 45t45 110v249h95v-249q0 -104 -73 -177.5t-177 -73.5z" />
    <glyph glyph-name="v" unicode="v" horiz-adv-x="507" 
d="M457 0h-159q-103 2 -175.5 74.5t-72.5 175.5v250h96v-250q0 -64 45.5 -109.5t109.5 -45.5h61v405h94z" />
    <glyph glyph-name="w" unicode="w" horiz-adv-x="1003" 
d="M299 1q-104 0 -176.5 73t-72.5 177v249h93v-249q0 -64 46 -109.5t110 -45.5q63 0 108 42.5t48 104.5v257h94v-257q3 -62 48 -104.5t107 -42.5q64 0 109 45t45 110v249h95v-249q0 -104 -72.5 -177t-176.5 -73q-125 0 -203 104q-34 -48 -87 -76t-115 -28z" />
    <glyph glyph-name="x" unicode="x" horiz-adv-x="504" 
d="M454 499v-96q-65 0 -110 -45t-45 -109t45.5 -109t109.5 -45v-95q-62 0 -115 28t-87 76q-34 -48 -87 -76t-115 -28v95q64 0 109.5 45t45.5 110q0 64 -45.5 108.5t-109.5 44.5v96q62 0 115 -28t87 -76q34 48 87 76t115 28z" />
    <glyph glyph-name="y" unicode="y" horiz-adv-x="601" 
d="M51 500h94v-250q0 -65 45.5 -110t110.5 -45t110 45.5t45 109.5v250h95v-250q0 -92 -57.5 -161t-145.5 -86v-203h-94v203q-88 17 -146 86.5t-58 160.5z" />
    <glyph glyph-name="z" unicode="z" horiz-adv-x="596" 
d="M298 201q-51 0 -91.5 -30t-55.5 -77h394v-94h-495v47q0 103 72.5 175.5t175.5 72.5q52 0 92.5 30.5t54.5 79.5h-394v93h495v-49q0 -103 -72.5 -175.5t-175.5 -72.5z" />
    <glyph glyph-name="acute" unicode="&#xb4;" horiz-adv-x="350" 
d="M300 844v-94q-64 0 -110 -46t-46 -110h-94q0 102 73.5 175t176.5 75z" />
    <glyph glyph-name="Adieresis" unicode="&#xc4;" 
d="M535 1061q59 0 100 -41.5t41 -99.5t-41 -99.5t-100 -41.5q-67 0 -109 52q-42 -52 -109 -52q-59 0 -100 41.5t-41 99.5t41 99.5t100 41.5q66 0 109 -51q43 51 109 51zM317 873q19 0 33 13.5t14 33.5t-14 33.5t-33 13.5t-33 -13.5t-14 -33.5t14 -33.5t33 -13.5zM535 873
q19 0 33 13.5t14 33.5t-14 33.5t-33 13.5t-33 -13.5t-14 -33.5t14 -33.5t33 -13.5zM426 753q156 0 266.5 -110.5t110.5 -266.5v-376h-94v106h-565v-106h-94v376q0 156 110 266.5t266 110.5zM709 200v176q0 117 -83 200t-200 83t-199.5 -83t-82.5 -200v-176h565z" />
    <glyph glyph-name="Aring" unicode="&#xc5;" 
d="M426 1062q58 0 99.5 -41t41.5 -100t-41.5 -100t-99.5 -41t-99.5 41t-41.5 100t41.5 100t99.5 41zM426 874q20 0 33.5 14t13.5 33t-13.5 33t-33.5 14t-33.5 -14t-13.5 -33t13.5 -33t33.5 -14zM426 753q156 0 266.5 -110t110.5 -266v-377h-94v107h-565v-107h-94v377
q0 156 110 266t266 110zM709 201v176q0 117 -83 199.5t-200 82.5t-199.5 -82.5t-82.5 -199.5v-176h565z" />
    <glyph glyph-name="AE" unicode="&#xc6;" horiz-adv-x="1221" 
d="M1171 659h-496q107 -94 125 -235h191v-94h-188v-236h368v-94h-462v107h-565v-107h-94v377q0 155 110 265.5t266 110.5h745v-94zM709 201v176q0 116 -83 199t-200 83t-199.5 -83t-82.5 -199v-176h565z" />
    <glyph glyph-name="Odieresis" unicode="&#xd6;" 
d="M535 1063q58 0 99.5 -41.5t41.5 -99.5t-41 -99.5t-100 -41.5q-66 0 -109 51q-41 -51 -109 -51q-58 0 -99.5 41.5t-41.5 99.5t41.5 99.5t99.5 41.5q67 0 109 -52q44 52 109 52zM317 875q19 0 33 13.5t14 33.5t-14 33.5t-33 13.5t-33 -14t-14 -33t14 -33t33 -14zM535 875
q19 0 33 13.5t14 33.5t-14 33.5t-33 13.5t-33 -14t-14 -33t14 -33t33 -14zM426 753q156 0 266.5 -110.5t110.5 -265.5q0 -156 -110.5 -266.5t-266.5 -110.5q-155 0 -265.5 110.5t-110.5 266.5q0 155 110.5 265.5t265.5 110.5zM426 94q117 0 200 83t83 200q0 116 -83 199
t-200 83q-116 0 -199 -83t-83 -199q0 -117 83 -200t199 -83z" />
    <glyph glyph-name="Oslash" unicode="&#xd8;" 
d="M725 608l-1 -1q79 -101 79 -231q0 -156 -110 -266t-266 -110q-130 0 -231 79l-1 -1l-8 8q-27 23 -50 50l-8 8v1q-79 103 -79 231q0 156 110.5 266.5t266.5 110.5q129 0 231 -80l1 1l8 -8q27 -23 50 -50zM145 376q0 -90 52 -164l393 394q-72 52 -163 52
q-117 0 -199.5 -82.5t-82.5 -199.5zM427 94q117 0 199.5 82.5t82.5 199.5q0 90 -52 164l-394 -394q72 -52 164 -52z" />
    <glyph glyph-name="Udieresis" unicode="&#xdc;" 
d="M535 1060q59 0 100 -41t41 -100t-41 -100t-100 -41q-66 0 -109 51q-41 -51 -109 -51q-58 0 -99.5 41.5t-41.5 99.5t41.5 99.5t99.5 41.5q68 0 109 -52q42 52 109 52zM317 872q19 0 33 14t14 33t-14 33t-33 14t-33 -14t-14 -33t14 -33t33 -14zM535 872q19 0 33 14t14 33
t-14 33t-33 14t-33 -14t-14 -33t14 -33t33 -14zM144 750v-373q0 -117 83 -200t200 -83q116 0 199 83t83 200v373h94v-377q-2 -155 -112 -264t-264 -109q-102 0 -188.5 50t-137 136.5t-51.5 189.5v374h94z" />
    <glyph glyph-name="adieresis" unicode="&#xe4;" horiz-adv-x="585" 
d="M394 819q58 0 99.5 -41.5t41.5 -99.5t-41.5 -99.5t-99.5 -41.5q-66 0 -109 51q-43 -51 -109 -51q-58 0 -99.5 41.5t-41.5 99.5t41.5 99.5t99.5 41.5q67 0 109 -52q42 52 109 52zM176 631q20 0 33.5 13.5t13.5 33.5t-13.5 33.5t-33.5 13.5t-33.5 -13.5t-13.5 -33.5
t13.5 -33.5t33.5 -13.5zM394 631q20 0 33.5 13.5t13.5 33.5t-13.5 33.5t-33.5 13.5t-33.5 -13.5t-13.5 -33.5t13.5 -33.5t33.5 -13.5zM535 0h-94v54q-70 -54 -156 -54q-103 0 -176.5 73.5t-73.5 177.5t73.5 177.5t176.5 73.5t176.5 -73.5t73.5 -177.5v-251zM285 95
q65 0 110.5 45.5t45.5 110.5q0 64 -46 110t-110 46t-110 -46t-46 -110q0 -65 45.5 -110.5t110.5 -45.5z" />
    <glyph glyph-name="aring" unicode="&#xe5;" horiz-adv-x="585" 
d="M285 819q59 0 100 -41.5t41 -99.5t-41 -99.5t-100 -41.5t-100 41.5t-41 99.5t41 99.5t100 41.5zM285 631q19 0 33 13.5t14 33.5t-14 33.5t-33 13.5t-33 -13.5t-14 -33.5t14 -33.5t33 -13.5zM535 0h-94v54q-70 -54 -156 -54q-103 0 -176.5 73.5t-73.5 177.5t73.5 177.5
t176.5 73.5t176.5 -73.5t73.5 -177.5v-251zM285 95q65 0 110.5 45.5t45.5 110.5q0 64 -46 110t-110 46t-110 -46t-46 -110q0 -65 45.5 -110.5t110.5 -45.5z" />
    <glyph glyph-name="ae" unicode="&#xe6;" horiz-adv-x="989" 
d="M939 405h-249q-62 0 -106.5 -42t-48.5 -104v-8v-12q5 -60 49.5 -101t105.5 -41v-1h249v-95h-249q-85 0 -155 54v-55h-94v54q-70 -54 -156 -54q-103 0 -176.5 73.5t-73.5 177.5t73.5 177.5t176.5 73.5q62 0 115.5 -28t87.5 -77q34 48 87.5 76t114.5 28h249v-96zM285 95
q63 0 108 42.5t48 104.5v9v8q-3 62 -48 105t-108 43q-64 0 -110 -46t-46 -110q0 -65 45.5 -110.5t110.5 -45.5zM643 251q0 19 13.5 33t33.5 14h125v-94h-125q-20 0 -33.5 14t-13.5 33z" />
    <glyph glyph-name="odieresis" unicode="&#xf6;" horiz-adv-x="570" 
d="M394 816q58 0 99.5 -41t41.5 -100t-41.5 -100t-99.5 -41q-66 0 -109 51q-43 -51 -109 -51q-58 0 -99.5 41t-41.5 100t41.5 100t99.5 41q67 0 109 -52q42 52 109 52zM176 628q20 0 33.5 14t13.5 33t-13.5 33t-33.5 14t-33.5 -14t-13.5 -33t13.5 -33t33.5 -14zM394 628
q20 0 33.5 14t13.5 33t-13.5 33t-33.5 14t-33.5 -14t-13.5 -33t13.5 -33t33.5 -14zM285 0q-104 0 -176.5 73t-72.5 176t72.5 176.5t176.5 73.5q103 0 175.5 -73.5t72.5 -176.5t-72.5 -176t-175.5 -73zM285 95q64 0 109.5 45t45.5 109t-45.5 109t-109.5 45q-65 0 -110 -45
t-45 -109t45.5 -109t109.5 -45z" />
    <glyph glyph-name="oslash" unicode="&#xf8;" horiz-adv-x="567" 
d="M284 499q103 0 175.5 -73.5t72.5 -176.5t-72.5 -176t-175.5 -73q-104 0 -176.5 73t-72.5 176t72.5 176.5t176.5 73.5zM284 403q-65 0 -110 -45t-45 -109q0 -32 15 -65l205 205q-31 14 -65 14zM284 95q64 0 109.5 45t45.5 109q0 43 -20 77l-211 -211q37 -20 76 -20z" />
    <glyph glyph-name="udieresis" unicode="&#xfc;" horiz-adv-x="600" 
d="M409 815q59 0 100 -41.5t41 -99.5t-41 -99.5t-100 -41.5q-67 0 -109 52q-42 -52 -109 -52q-59 0 -100 41.5t-41 99.5t41 99.5t100 41.5q66 0 109 -51q43 51 109 51zM191 627q19 0 33 13.5t14 33.5t-14 33.5t-33 13.5t-33 -13.5t-14 -33.5t14 -33.5t33 -13.5zM409 627
q19 0 33 13.5t14 33.5t-14 33.5t-33 13.5t-33 -13.5t-14 -33.5t14 -33.5t33 -13.5zM548 500v-252q0 -103 -72.5 -175.5t-175.5 -72.5q-104 0 -176.5 73t-72.5 176v251h94v-251q0 -64 45.5 -109t109.5 -45t109.5 45t45.5 109v251h93z" />
  </font>
</defs>
</svg>
